PathFileType	4	(X/Y/Z)	walk-thru1-4-TP.trc
DataRate	CameraRate	NumFrames	NumMarkers	Units	OrigDataRate	OrigDataStartFrame	OrigNumFrames
120.00	120.00	       4	60	mm	120.00	249	       497
Frame#	Time	Top.Head			Front.Head			Rear.Head			Jaw			C7			R.Clavicle			L.Clavicle			R.Shoulder			L.Shoulder			R.Scapula			L.Scapula			R.Scap.Inf			R.Biceps.Lateral			R.Elbow			R.Elbow.Medial			R.Forearm			R.Ulna			R.Radius			R.Wrist			R.Thumb.M1			R.Thumb.M2			R.Thumb.M3			R.Finger3.M1			R.Finger3.M2			R.Finger3.M3			L.Biceps.Lateral			L.Elbow			L.Elbow.Medial			L.Forearm			L.Ulna			L.Radius			L.Wrist			L.Thumb.M1			L.Thumb.M2			L.Thumb.M3			L.Finger3.M1			L.Finger3.M2			L.Finger3.M3			V.Sacral			R.ASIS			L.ASIS			R.Thigh			R.Thigh.Front			R.Knee			R.Knee.Medial			R.Shank			R.Ankle			R.Ankle.Medial			R.Heel			R.Toe			R.MedFoot			L.Thigh			L.Knee			L.Knee.Medial			L.Shank			L.Ankle			L.Ankle.Medial			L.Heel			L.Toe			L.MedFoot			V_mid_ASIS			V_R_Knee_JC			V_L_Knee_JC			V_R_Elbow_JC			V_L_Elbow_JC			V_R_Ankle_JC			V_L_Ankle_JC			V_R_Wrist_JC			V_L_Wrist_JC			V_R_ScaTrpz_1stMC_JC			V_R_1stMC_1stPP_JC			V_R_1stPP_1stDP_JC			V_R_LunCap_3rdMC_JC			V_R_3rdMC_3rdPP_JC			V_R_3rdPP_3rdMP_JC			V_R_3rdMP_3rdDP_JC			V_L_ScaTrpz_1stMC_JC			V_L_1stMC_1stPP_JC			V_L_1stPP_1stDP_JC			V_L_LunCap_3rdMC_JC			V_L_3rdMC_3rdPP_JC			V_L_3rdPP_3rdMP_JC			V_L_3rdMP_3rdPP_JC			V_ROOT_JC			V_R_Hip_JC			V_L_Hip_JC			V_R_GlenHum_JC			V_L_GlenHum_JC			V_ForeHead_Ctr			V_Vertex			V_Sagit_Lambdoid_Suture			V_R_FrontoTemp			V_L_FrontoTemporal			V_R_ParietalOccip			V_L_ParietalOcciptal			V_R_Temporal			V_L_Temporal			V_mid_FrontRearHead			V_mid_RLGlenHumCtrs			V_C7_vert			V_C1_vert			V_Mid_Hip			
		X1	Y1	Z1	X2	Y2	Z2	X3	Y3	Z3	X4	Y4	Z4	X5	Y5	Z5	X6	Y6	Z6	X7	Y7	Z7	X8	Y8	Z8	X9	Y9	Z9	X10	Y10	Z10	X11	Y11	Z11	X12	Y12	Z12	X13	Y13	Z13	X14	Y14	Z14	X15	Y15	Z15	X16	Y16	Z16	X17	Y17	Z17	X18	Y18	Z18	X19	Y19	Z19	X20	Y20	Z20	X21	Y21	Z21	X22	Y22	Z22	X23	Y23	Z23	X24	Y24	Z24	X25	Y25	Z25	X26	Y26	Z26	X27	Y27	Z27	X28	Y28	Z28	X29	Y29	Z29	X30	Y30	Z30	X31	Y31	Z31	X32	Y32	Z32	X33	Y33	Z33	X34	Y34	Z34	X35	Y35	Z35	X36	Y36	Z36	X37	Y37	Z37	X38	Y38	Z38	X39	Y39	Z39	X40	Y40	Z40	X41	Y41	Z41	X42	Y42	Z42	X43	Y43	Z43	X44	Y44	Z44	X45	Y45	Z45	X46	Y46	Z46	X47	Y47	Z47	X48	Y48	Z48	X49	Y49	Z49	X50	Y50	Z50	X51	Y51	Z51	X52	Y52	Z52	X53	Y53	Z53	X54	Y54	Z54	X55	Y55	Z55	X56	Y56	Z56	X57	Y57	Z57	X58	Y58	Z58	X59	Y59	Z59	X60	Y60	Z60	

249	2.067	632.04639	75.48683	1552.19727	731.13367	67.12834	1450.57251	518.37659	74.20048	1473.09131	698.19916	52.15470	1311.16223	500.30789	58.52861	1364.25427	571.48389	-56.33708	1272.46106	602.72058	156.70586	1279.79199	513.94775	-127.92158	1270.29846	561.43042	253.41130	1282.77344	443.71191	-20.38651	1288.76660	458.54919	160.22743	1288.92664	396.70731	-0.16064	1206.38806	514.28851	-183.38731	1130.77808	464.06528	-202.37175	974.82422	445.66678	-127.68678	959.51263	533.69519	-204.46793	893.43042	497.11563	-229.13271	811.75598	562.05609	-191.71736	758.54559	552.47546	-232.57822	728.27228	586.24292	-200.87276	707.56500	594.02936	-184.60245	671.74219	603.26959	-178.49168	631.35535	567.13794	-255.12038	655.54181	566.30573	-241.67079	603.41260	555.71558	-224.35013	568.13263	544.48059	318.22198	1139.86719	494.44867	335.24994	996.62787	465.69052	257.91486	986.93744	579.56787	311.46252	933.03198	575.27594	350.64597	842.93945	619.52496	290.38943	801.20575	636.83337	338.16260	777.60468	653.41571	293.40051	768.42981	667.10931	271.05612	733.01434	674.87256	265.04010	680.31189	669.40289	336.83066	696.78906	675.86713	332.43732	658.51965	674.85266	316.22211	615.41095	391.04953	50.93763	897.70844	582.76019	-97.28532	960.33997	570.57019	222.01440	947.19269	662.39374	-132.35072	583.77380	766.28455	-54.14339	526.51416	732.46588	-92.42461	461.54471	737.81696	22.50188	461.34622	764.41632	-44.53531	295.00195	729.04401	-57.35020	69.84866	748.22882	30.10368	92.42522	679.27240	1.56292	35.73024	870.24066	-39.79829	69.93471	818.12756	3.56698	85.17331	521.56488	228.22377	569.69733	515.51324	194.77695	432.06882	533.56110	75.02605	416.86105	477.39865	129.46042	241.33487	370.25912	140.97633	69.14452	388.58884	52.33024	88.46843	310.79868	88.82943	51.01872	516.01093	109.75954	38.74282	460.69977	75.60706	62.65361																																																																																																																															
250	2.075	635.58563	74.62918	1551.52295	735.45435	66.59953	1449.76025	523.81146	73.95087	1471.68628	702.88586	51.27721	1310.56592	504.62952	58.92825	1361.95459	577.27008	-56.96669	1271.12000	606.95050	155.80936	1278.87024	519.56036	-129.09656	1269.36707	565.73590	252.09142	1281.63696	448.12384	-21.97417	1287.13989	462.94595	157.71484	1287.45703	402.10416	-2.63456	1204.82874	520.17719	-184.75595	1129.69531	470.79477	-203.03322	973.74005	451.30878	-128.96561	957.94489	540.10632	-205.46284	892.26447	504.28430	-230.12611	810.80389	568.76764	-192.31117	757.20612	560.02551	-234.28113	727.45062	590.97552	-199.22978	706.01379	602.30151	-186.90877	670.72742	610.14886	-179.32382	629.56744	574.60291	-256.45313	654.90149	575.79254	-242.70847	603.81323	563.95422	-226.09447	566.63910	549.22998	317.09518	1138.50830	498.63562	333.81003	995.52460	473.82236	256.93683	986.56085	583.06158	311.34406	934.21222	577.46698	349.97180	842.46930	625.40924	290.37152	800.70227	640.35846	337.99274	777.28857	659.62579	293.67108	768.02472	670.15448	270.72284	732.76978	678.95898	266.46060	680.21356	673.15338	336.03448	695.68475	679.88733	330.51233	657.29388	678.56000	313.82169	614.45044	396.96494	49.35091	896.51062	588.97595	-98.55499	959.38287	576.65167	221.20840	946.27875	668.79767	-130.95067	581.33691	772.02155	-53.86841	523.65070	737.19708	-91.78330	459.84283	744.36975	21.65211	459.96017	768.42810	-43.67558	292.55356	733.38202	-56.02348	68.90462	752.04059	33.23019	89.96643	682.54456	3.06361	36.14639	875.01593	-38.48542	68.12739	822.13861	6.52512	82.53852	526.35565	229.98422	568.58118	519.77124	194.71269	430.98163	538.50879	75.57202	416.12500	479.99866	130.23187	240.44336	371.22934	141.05873	69.55069	389.16937	52.16973	88.72533	311.52109	88.94963	51.95754	516.14264	109.99746	38.77705	460.86200	75.93307	62.81351																																																																																																																															
251	2.083	640.53241	73.36430	1550.50171	739.75403	65.97076	1449.38562	528.20197	73.20393	1471.45020	707.94531	50.74814	1309.42505	509.61884	56.32396	1360.72754	582.19513	-58.08541	1270.73364	612.26288	155.63068	1278.63013	525.06427	-130.03941	1267.55920	570.05145	251.88362	1281.15002	453.08832	-24.02660	1285.55701	467.46313	157.64453	1285.85413	407.42667	-3.22801	1203.59180	526.10675	-185.55389	1128.03479	476.95465	-204.80492	971.56946	457.55045	-130.55943	957.45990	548.89600	-206.25500	890.74225	511.44055	-231.33984	809.79749	575.75220	-192.49927	757.03467	566.63928	-234.27170	726.38397	599.77173	-202.01332	705.90997	610.43335	-187.13358	669.94904	617.59973	-180.44214	628.38672	582.62024	-257.62335	653.88092	583.18640	-244.92772	603.11139	571.38593	-228.87788	566.07953	553.67151	315.12747	1137.15222	502.66806	333.94171	994.20819	476.33896	256.56140	984.25464	588.65009	311.19196	932.88220	583.23340	349.98279	841.91650	629.46149	289.92175	799.95868	644.55115	337.33948	776.46191	663.85321	293.47461	767.76941	677.32013	270.33398	732.62659	682.30402	266.16055	678.97113	677.23785	334.72549	695.02594	683.28094	328.90533	656.41656	681.21771	311.96634	613.67578	403.23679	48.55156	894.70648	595.64484	-98.66199	958.18719	582.21393	221.01849	945.20898	675.67365	-129.78700	580.05786	777.21826	-54.38307	521.98480	741.82190	-91.78112	457.06458	749.91321	22.26747	458.18900	773.32343	-42.14331	290.44492	736.47021	-54.72689	68.66688	754.77118	34.50644	87.47212	683.12189	3.23107	37.12548	878.79663	-37.45485	64.69319	824.07446	9.44474	77.16013	532.87378	227.96854	567.53308	524.68756	195.25156	430.17383	542.99097	73.98066	414.73456	482.71039	130.65578	239.83525	371.61365	140.97224	69.72844	389.35706	52.48557	89.36740	311.71185	89.14263	53.25410	516.19037	109.99483	38.52335	460.90182	76.14954	62.77533																																																																																																																															
252	2.092	644.98547	73.09328	1550.11902	744.62256	66.05737	1448.31982	532.06769	70.76924	1470.30383	712.82159	50.69691	1308.81958	513.98499	55.64245	1360.02173	587.81244	-59.31586	1269.34583	617.07007	154.91362	1277.70898	529.71198	-131.14999	1266.25745	574.81726	250.34489	1279.88855	458.10904	-23.79953	1284.12549	471.94073	155.75327	1284.30176	412.45901	-4.19593	1201.84778	532.55640	-186.90799	1126.63184	483.55319	-205.12283	970.58435	464.08487	-131.01730	955.56061	556.16669	-206.41087	889.69641	518.51727	-232.83957	807.96185	583.38037	-193.50055	755.34558	573.67419	-234.85724	725.46985	607.55090	-202.18951	705.60699	617.12543	-188.37022	668.86926	626.14807	-182.10983	627.42517	589.88452	-259.08755	652.91766	590.85358	-245.69145	602.49249	579.04340	-230.34099	565.05939	557.85236	314.51242	1135.96021	505.54507	332.67072	994.16602	480.35797	254.31261	984.64282	593.56647	309.08276	932.92902	587.57336	348.98776	841.76697	635.88043	289.54788	800.73383	649.34363	337.83755	776.66364	668.45599	292.32373	766.75146	680.06812	270.01978	731.46191	687.33148	265.10526	678.34100	680.85010	333.49039	694.07086	687.07446	327.87552	655.58032	684.33185	309.27322	612.84430	409.49164	47.58065	893.48218	602.55505	-100.15887	956.71649	588.54279	220.85287	944.45850	682.74786	-128.69415	579.36475	782.81653	-55.40234	519.84222	746.55060	-91.12450	455.73026	755.71930	21.70344	455.60562	777.97485	-41.66702	288.36053	736.55426	-54.51372	68.55773	755.88422	35.44514	86.29546	683.29993	4.56340	36.12088	881.62646	-36.03931	59.36068	826.09454	11.09692	73.46293	537.36359	229.73282	566.49548	529.17401	196.15628	429.61002	548.86945	75.71976	413.47263	484.35776	129.14856	239.01881	372.76953	141.39220	70.26226	390.25595	53.00685	90.49702	311.63098	89.18873	54.45068	516.34601	110.22556	38.46290	461.16757	76.63116	63.23980																																																																																																																															
